<?xml version="1.0"?><svg width="418.6375" height="278.95" xmlns="http://www.w3.org/2000/svg">
 <title>dolphinwhite</title>
 <metadata id="metadata15097">image/svg+xml</metadata>
 <defs>
  <clipPath clipPathUnits="userSpaceOnUse" id="clipPath15107">
   <path d="m0,0.6875l1395,0l0,929.16803l-1395,0l0,-929.16803z" id="path15109"/>
  </clipPath>
 </defs>
 <g>
  <title>Layer 1</title>
  <g id="g15099" transform="matrix(1.25, 0, 0, -1.25, 0, 278.95)">
   <g id="g15101" transform="scale(0.24,0.24)">
    <g id="g15103">
     <g id="g15105" clip-path="url(#clipPath15107)">
      <path stroke="#000000" d="m706.684021,912.073975c-26.007996,-9.871033 -49.742981,-23.026978 -73.664001,-34.75c-8.156982,-3.987976 -17.41803,-10.335999 -24.973022,-12.276978c-19.257996,-4.926025 -49.386963,3.690979 -73.929993,4.589966c-61.35498,2.22998 -101.073975,-2.398987 -151.507996,-10.198975c-23.600983,-3.64502 -48.035004,-7.054993 -68.753967,-13.286011c-17.695007,-5.328003 -37.988007,-17.226013 -57.789032,-27.22998c-31.293015,-15.823975 -52.605011,-30.715027 -77.003006,-49.784973c-40.778,-31.860046 -66.454002,-71.965027 -96.297401,-116.028015c-13.027306,-19.234009 -31.8008,-47.893982 -32.730404,-70.656006c-17.25,-26.815979 -43.460978,-43.187012 -50.035198,-82.449005c9.19141,-22.960999 33.0117,-2.542999 47.3633,5.101013c11.871101,6.339996 24.640598,13.917999 35.163998,16.957977c54.671707,15.807983 130.859695,-6.789978 184.085709,7.695007c18.871002,5.132996 35.210999,15.492004 53.957001,19.879028c17.800995,4.178955 31.414001,-3.215027 44.105988,-8.840027c6.742004,-3 13.846985,-7.051025 19.968994,-10.276978c39.660004,-21.02002 79.29599,-43.309021 132.542999,-51.700012c42.734009,-6.730011 79.862976,6.105988 114.601013,13.039001c8.820007,1.761993 20.20697,1.125 26.894958,8.843994c-27.72699,6.425995 -50.734985,17.382996 -79.687988,29.073975c-38.031006,15.348022 -67.573975,25.731018 -81.948975,56.54303c17.02301,4.575012 36.737976,1.18396 54.460999,-2c19.351013,-3.468018 38.554993,-6.718018 57.120972,-9.855042c78.406006,-13.237976 137.445007,-35.464966 197.129028,-64.304962c28.995972,-13.996002 55.714966,-33.484009 80.284973,-49.851013c50.324036,-33.554993 93.289001,-75.222992 133.807007,-120.609985c18.349976,-20.554016 34.719971,-46.285004 54.619995,-70.820007c8.690063,-10.72702 17.430054,-22.688004 26.72998,-35.922012c8.869995,-12.585999 22.420044,-28.003998 24.300049,-39.011993c2.109985,-12.143997 -4.180054,-25.472 -7.339966,-38.746002c-5.480103,-23.078003 -9.51001,-47.82 -7.680054,-71.5037c2.390015,-30.640598 9.070068,-60.480499 23.070068,-83.6953c6.069946,5.54297 8.549927,15.2891 11.669922,24.226611c15.339966,20.11319 35.75,40.195297 36.26001,73.6679c41.900024,-22.210899 123.280029,-20.343704 172.150024,-19.777298c14.689941,0.175797 29.660034,-1.417999 41.829956,4.441399c-25.659912,15.265602 -44.5,34.586388 -66.809937,54.289391c-33.75,29.785004 -61.660034,54.879013 -111.420044,70.811996c-16.130005,5.164001 -34.589966,7.960999 -43.429932,17.531006c-6.790039,7.324997 -8.860107,23.550995 -12.300049,39.171982c-9.27002,42.25 -21.329956,87.067017 -32.070068,122.617004c-32.269897,106.868011 -81.509888,201.848022 -147.027954,275.614014c-33.195007,37.406006 -72.851013,67.862976 -115.593018,101.734009c-7.304993,11.745972 -20.984985,27.598022 -23.816956,45.515991c-2.894043,18.445007 2.323975,34.635986 13.437988,47.026978c24.307983,18.195007 62.492004,20.207031 79.015015,47.449036c-21.593018,15.942017 -48.386047,20.614014 -74.674988,23.223022c-56.809021,5.632996 -110.024048,1.261963 -154.08606,-15.469055" id="path15111" fill-rule="nonzero" fill="#000000"/>
     </g>
    </g>
   </g>
  </g>
 </g>
</svg>